<mxfile host="app.diagrams.net" modified="2023-10-06T22:50:54.003Z" agent="Mozilla/5.0 (Windows NT 10.0; Win64; x64) AppleWebKit/537.36 (KHTML, like Gecko) Chrome/117.0.0.0 Safari/537.36" etag="cR2ZgH7Y_TLhCeUGgcGl" version="21.6.5" type="device">
  <diagram name="Страница 1" id="yaBchL_y4OPyzSbF4ZGR">
    <mxGraphModel dx="1795" dy="1304" grid="1" gridSize="10" guides="1" tooltips="1" connect="1" arrows="1" fold="1" page="1" pageScale="1" pageWidth="827" pageHeight="1169" math="0" shadow="0">
      <root>
        <mxCell id="0" />
        <mxCell id="1" parent="0" />
        <mxCell id="7IEmVaw3haMHRxwr0fwp-3" value="" style="edgeStyle=orthogonalEdgeStyle;rounded=0;orthogonalLoop=1;jettySize=auto;html=1;" edge="1" parent="1" source="7IEmVaw3haMHRxwr0fwp-1" target="7IEmVaw3haMHRxwr0fwp-2">
          <mxGeometry relative="1" as="geometry" />
        </mxCell>
        <mxCell id="7IEmVaw3haMHRxwr0fwp-1" value="Ввод массива&lt;br&gt;inputArr[]" style="shape=parallelogram;perimeter=parallelogramPerimeter;whiteSpace=wrap;html=1;fixedSize=1;" vertex="1" parent="1">
          <mxGeometry x="-473" y="40" width="120" height="60" as="geometry" />
        </mxCell>
        <mxCell id="7IEmVaw3haMHRxwr0fwp-5" value="" style="edgeStyle=orthogonalEdgeStyle;rounded=0;orthogonalLoop=1;jettySize=auto;html=1;" edge="1" parent="1" source="7IEmVaw3haMHRxwr0fwp-2" target="7IEmVaw3haMHRxwr0fwp-4">
          <mxGeometry relative="1" as="geometry" />
        </mxCell>
        <mxCell id="7IEmVaw3haMHRxwr0fwp-2" value="newArr[]&lt;br&gt;j=0" style="whiteSpace=wrap;html=1;" vertex="1" parent="1">
          <mxGeometry x="-473" y="180" width="120" height="60" as="geometry" />
        </mxCell>
        <mxCell id="7IEmVaw3haMHRxwr0fwp-7" value="" style="edgeStyle=orthogonalEdgeStyle;rounded=0;orthogonalLoop=1;jettySize=auto;html=1;" edge="1" parent="1" source="7IEmVaw3haMHRxwr0fwp-4" target="7IEmVaw3haMHRxwr0fwp-6">
          <mxGeometry relative="1" as="geometry" />
        </mxCell>
        <mxCell id="7IEmVaw3haMHRxwr0fwp-16" value="" style="edgeStyle=orthogonalEdgeStyle;rounded=0;orthogonalLoop=1;jettySize=auto;html=1;" edge="1" parent="1" source="7IEmVaw3haMHRxwr0fwp-4" target="7IEmVaw3haMHRxwr0fwp-15">
          <mxGeometry relative="1" as="geometry">
            <Array as="points">
              <mxPoint x="-130" y="350" />
              <mxPoint x="-130" y="929.9999999999998" />
            </Array>
          </mxGeometry>
        </mxCell>
        <mxCell id="7IEmVaw3haMHRxwr0fwp-4" value="i=0; i&amp;lt;=lenght.inputArr[]; i++" style="rhombus;whiteSpace=wrap;html=1;" vertex="1" parent="1">
          <mxGeometry x="-518" y="310" width="210" height="80" as="geometry" />
        </mxCell>
        <mxCell id="7IEmVaw3haMHRxwr0fwp-9" value="" style="edgeStyle=orthogonalEdgeStyle;rounded=0;orthogonalLoop=1;jettySize=auto;html=1;" edge="1" parent="1" source="7IEmVaw3haMHRxwr0fwp-6" target="7IEmVaw3haMHRxwr0fwp-8">
          <mxGeometry relative="1" as="geometry" />
        </mxCell>
        <mxCell id="7IEmVaw3haMHRxwr0fwp-11" style="edgeStyle=orthogonalEdgeStyle;rounded=0;orthogonalLoop=1;jettySize=auto;html=1;" edge="1" parent="1" source="7IEmVaw3haMHRxwr0fwp-6">
          <mxGeometry relative="1" as="geometry">
            <mxPoint x="-600" y="730" as="targetPoint" />
            <Array as="points">
              <mxPoint x="-240" y="510" />
              <mxPoint x="-240" y="730" />
              <mxPoint x="-600" y="730" />
            </Array>
          </mxGeometry>
        </mxCell>
        <mxCell id="7IEmVaw3haMHRxwr0fwp-6" value="lenght.inputArr[i]&amp;lt;=3" style="rhombus;whiteSpace=wrap;html=1;" vertex="1" parent="1">
          <mxGeometry x="-518" y="470" width="210" height="80" as="geometry" />
        </mxCell>
        <mxCell id="7IEmVaw3haMHRxwr0fwp-12" style="edgeStyle=orthogonalEdgeStyle;rounded=0;orthogonalLoop=1;jettySize=auto;html=1;exitX=0.5;exitY=1;exitDx=0;exitDy=0;" edge="1" parent="1" source="7IEmVaw3haMHRxwr0fwp-8">
          <mxGeometry relative="1" as="geometry">
            <mxPoint x="-520.0000000000001" y="350" as="targetPoint" />
            <Array as="points">
              <mxPoint x="-600" y="730" />
              <mxPoint x="-750" y="730" />
              <mxPoint x="-750" y="350" />
            </Array>
          </mxGeometry>
        </mxCell>
        <mxCell id="7IEmVaw3haMHRxwr0fwp-8" value="newArr[j]=inputArr[i]&lt;br&gt;j++" style="whiteSpace=wrap;html=1;" vertex="1" parent="1">
          <mxGeometry x="-660" y="620" width="120" height="60" as="geometry" />
        </mxCell>
        <mxCell id="7IEmVaw3haMHRxwr0fwp-10" value="Да" style="text;html=1;align=center;verticalAlign=middle;resizable=0;points=[];autosize=1;strokeColor=none;fillColor=none;" vertex="1" parent="1">
          <mxGeometry x="-590" y="468" width="40" height="30" as="geometry" />
        </mxCell>
        <mxCell id="7IEmVaw3haMHRxwr0fwp-13" value="Нет" style="text;html=1;align=center;verticalAlign=middle;resizable=0;points=[];autosize=1;strokeColor=none;fillColor=none;" vertex="1" parent="1">
          <mxGeometry x="-290" y="470" width="40" height="30" as="geometry" />
        </mxCell>
        <mxCell id="7IEmVaw3haMHRxwr0fwp-18" value="" style="edgeStyle=orthogonalEdgeStyle;rounded=0;orthogonalLoop=1;jettySize=auto;html=1;" edge="1" parent="1" source="7IEmVaw3haMHRxwr0fwp-15" target="7IEmVaw3haMHRxwr0fwp-17">
          <mxGeometry relative="1" as="geometry" />
        </mxCell>
        <mxCell id="7IEmVaw3haMHRxwr0fwp-15" value="newArr resize j" style="whiteSpace=wrap;html=1;" vertex="1" parent="1">
          <mxGeometry x="-473" y="900" width="120" height="60" as="geometry" />
        </mxCell>
        <mxCell id="7IEmVaw3haMHRxwr0fwp-17" value="return newArr[]" style="whiteSpace=wrap;html=1;" vertex="1" parent="1">
          <mxGeometry x="-473" y="1040" width="120" height="60" as="geometry" />
        </mxCell>
      </root>
    </mxGraphModel>
  </diagram>
</mxfile>
